<svg width="13088" height="3635" xmlns="http://www.w3.org/2000/svg" xmlns:xlink="http://www.w3.org/1999/xlink" overflow="hidden"><defs><clipPath id="clip0"><rect x="-4433" y="-984" width="13088" height="3635"/></clipPath><clipPath id="clip1"><rect x="-1918" y="-922" width="661" height="1233"/></clipPath><clipPath id="clip2"><rect x="-1918" y="-922" width="661" height="1233"/></clipPath><clipPath id="clip3"><rect x="63" y="-922" width="661" height="1233"/></clipPath><clipPath id="clip4"><rect x="63" y="-922" width="661" height="1233"/></clipPath><clipPath id="clip5"><rect x="2043" y="-922" width="662" height="1233"/></clipPath><clipPath id="clip6"><rect x="2043" y="-922" width="662" height="1233"/></clipPath><clipPath id="clip7"><rect x="4024" y="-922" width="661" height="1233"/></clipPath><clipPath id="clip8"><rect x="4024" y="-922" width="661" height="1233"/></clipPath><clipPath id="clip9"><rect x="6005" y="-922" width="661" height="1233"/></clipPath><clipPath id="clip10"><rect x="6005" y="-922" width="661" height="1233"/></clipPath><clipPath id="clip11"><rect x="7985" y="-922" width="661" height="1233"/></clipPath><clipPath id="clip12"><rect x="7985" y="-922" width="661" height="1233"/></clipPath></defs><g clip-path="url(#clip0)" transform="translate(4433 984)"><path d="M-3237.73-960.478-1257.11-960.478-1257.11-511.113-3237.73-511.113Z" fill="#F2F2F2" fill-rule="evenodd"/><path d="M-1257.11-960.478 723.514-960.478 723.514-511.113-1257.11-511.113Z" fill="#B8DBC8" fill-rule="evenodd"/><path d="M723.514-960.478 2704.14-960.478 2704.14-511.113 723.514-511.113Z" fill="#EBDEB8" fill-rule="evenodd"/><path d="M2704.14-960.478 4684.76-960.478 4684.76-511.113 2704.14-511.113Z" fill="#C5E0B4" fill-rule="evenodd"/><path d="M4684.76-960.478 6665.38-960.478 6665.38-511.113 4684.76-511.113Z" fill="#DEEBF7" fill-rule="evenodd"/><path d="M6665.38-960.478 8646-960.478 8646-511.113 6665.38-511.113Z" fill="#FF898C" fill-rule="evenodd"/><path d="M-3237.73-962.77-3237.73 2648.59" stroke="#000000" stroke-width="4.58333" stroke-linejoin="round" stroke-miterlimit="10" stroke-dasharray="18.3333 13.75" fill="none" fill-rule="evenodd"/><path d="M-2577.52-513.405-2577.52 2648.59" stroke="#000000" stroke-width="4.58333" stroke-linejoin="round" stroke-miterlimit="10" stroke-dasharray="18.3333 13.75" fill="none" fill-rule="evenodd"/><path d="M-1917.31-513.405-1917.31 2648.59" stroke="#000000" stroke-width="4.58333" stroke-linejoin="round" stroke-miterlimit="10" stroke-dasharray="18.3333 13.75" fill="none" fill-rule="evenodd"/><path d="M-1257.11-962.77-1257.11 2648.59" stroke="#000000" stroke-width="4.58333" stroke-linejoin="round" stroke-miterlimit="10" stroke-dasharray="18.3333 13.75" fill="none" fill-rule="evenodd"/><path d="M-596.9-513.405-596.9 2648.59" stroke="#000000" stroke-width="4.58333" stroke-linejoin="round" stroke-miterlimit="10" stroke-dasharray="18.3333 13.75" fill="none" fill-rule="evenodd"/><path d="M63.3066-513.405 63.3066 2648.59" stroke="#000000" stroke-width="4.58333" stroke-linejoin="round" stroke-miterlimit="10" stroke-dasharray="18.3333 13.75" fill="none" fill-rule="evenodd"/><path d="M723.514-962.77 723.514 2648.59" stroke="#000000" stroke-width="4.58333" stroke-linejoin="round" stroke-miterlimit="10" stroke-dasharray="18.3333 13.75" fill="none" fill-rule="evenodd"/><path d="M1383.72-513.405 1383.72 2648.59" stroke="#000000" stroke-width="4.58333" stroke-linejoin="round" stroke-miterlimit="10" stroke-dasharray="18.3333 13.75" fill="none" fill-rule="evenodd"/><path d="M2043.93-513.405 2043.93 2648.59" stroke="#000000" stroke-width="4.58333" stroke-linejoin="round" stroke-miterlimit="10" stroke-dasharray="18.3333 13.75" fill="none" fill-rule="evenodd"/><path d="M2704.14-962.77 2704.14 2648.59" stroke="#000000" stroke-width="4.58333" stroke-linejoin="round" stroke-miterlimit="10" stroke-dasharray="18.3333 13.75" fill="none" fill-rule="evenodd"/><path d="M3364.34-513.405 3364.34 2648.59" stroke="#000000" stroke-width="4.58333" stroke-linejoin="round" stroke-miterlimit="10" stroke-dasharray="18.3333 13.75" fill="none" fill-rule="evenodd"/><path d="M4024.55-513.405 4024.55 2648.59" stroke="#000000" stroke-width="4.58333" stroke-linejoin="round" stroke-miterlimit="10" stroke-dasharray="18.3333 13.75" fill="none" fill-rule="evenodd"/><path d="M4684.76-962.77 4684.76 2648.59" stroke="#000000" stroke-width="4.58333" stroke-linejoin="round" stroke-miterlimit="10" stroke-dasharray="18.3333 13.75" fill="none" fill-rule="evenodd"/><path d="M5344.96-513.405 5344.96 2648.59" stroke="#000000" stroke-width="4.58333" stroke-linejoin="round" stroke-miterlimit="10" stroke-dasharray="18.3333 13.75" fill="none" fill-rule="evenodd"/><path d="M6005.17-513.405 6005.17 2648.59" stroke="#000000" stroke-width="4.58333" stroke-linejoin="round" stroke-miterlimit="10" stroke-dasharray="18.3333 13.75" fill="none" fill-rule="evenodd"/><path d="M6665.38-962.77 6665.38 2648.59" stroke="#000000" stroke-width="4.58333" stroke-linejoin="round" stroke-miterlimit="10" stroke-dasharray="18.3333 13.75" fill="none" fill-rule="evenodd"/><path d="M7325.59-513.405 7325.59 2648.59" stroke="#000000" stroke-width="4.58333" stroke-linejoin="round" stroke-miterlimit="10" stroke-dasharray="18.3333 13.75" fill="none" fill-rule="evenodd"/><path d="M7985.79-513.405 7985.79 2648.59" stroke="#000000" stroke-width="4.58333" stroke-linejoin="round" stroke-miterlimit="10" stroke-dasharray="18.3333 13.75" fill="none" fill-rule="evenodd"/><path d="M-4432.29-511.113 8646-511.113" stroke="#000000" stroke-width="4.58333" stroke-linejoin="round" stroke-miterlimit="10" stroke-dasharray="4.58333 13.75" fill="none" fill-rule="evenodd"/><path d="M-4432.29-99.5172 8646-99.5172" stroke="#000000" stroke-width="4.58333" stroke-linejoin="round" stroke-miterlimit="10" fill="none" fill-rule="evenodd"/><path d="M-4432.29 2223.51 8646 2223.51 8646 2225.8-4432.29 2225.8ZM-4432.29 2228.09 8646 2228.09 8646 2230.39-4432.29 2230.39Z"/><path d="M-4432.29-960.478 8646-960.478" stroke="#000000" stroke-width="4.58333" stroke-linejoin="round" stroke-miterlimit="10" fill="none" fill-rule="evenodd"/><path d="M-4432.29 2631.41 8646 2631.41 8646 2637.14-4432.29 2637.14ZM-4432.29 2642.86 8646 2642.86 8646 2648.59-4432.29 2648.59Z"/><text font-family="Times New Roman,Times New Roman_MSFontService,sans-serif" font-weight="700" font-size="147" transform="matrix(1 0 0 1 -4056.44 -682)">Method<tspan font-size="165" x="1457.64" y="6">V</tspan><tspan font-size="165" x="1564.57" y="6">-</tspan><tspan font-size="165" x="1619.57" y="6">PCCv22</tspan><tspan font-size="165" x="3565.06" y="6">YOGA</tspan><tspan font-size="165" x="5444.85" y="6">DeepPCC</tspan><tspan font-size="165" x="7345.27" y="-93">JPEG </tspan><tspan font-size="165" x="7808.18" y="-93">Pleno</tspan><tspan font-size="165" x="7552.32" y="105">VM4.1</tspan><tspan font-size="165" x="9465.68" y="6">Unicorn</tspan><tspan font-size="165" x="11406.5" y="-93">Proposed</tspan><tspan font-size="165" x="11281.3" y="105">MEGA</tspan><tspan font-size="165" x="11794.6" y="105">-</tspan><tspan font-size="165" x="11849.6" y="105">PCC</tspan><tspan font-size="147" x="32.3699" y="431">Metric</tspan><tspan font-weight="400" font-size="147" x="1082.07" y="431">D1</tspan><tspan font-weight="400" font-size="147" x="1778.95" y="431">Y</tspan></text><g clip-path="url(#clip1)"><text font-family="Times New Roman,Times New Roman_MSFontService,sans-serif" font-weight="400" font-size="147" transform="matrix(1 0 0 1 -1833.28 -251)">1</text></g><text font-family="Times New Roman,Times New Roman_MSFontService,sans-serif" font-weight="400" font-size="147" transform="matrix(1 0 0 1 -1759.95 -251)">-</text><g clip-path="url(#clip2)"><text font-family="Times New Roman,Times New Roman_MSFontService,sans-serif" font-weight="400" font-size="147" transform="matrix(1 0 0 1 -1711.25 -251)">PCQM</text></g><text font-family="Times New Roman,Times New Roman_MSFontService,sans-serif" font-weight="400" font-size="147" transform="matrix(1 0 0 1 -993.749 -251)">D1<tspan font-size="147" x="696.874" y="0">Y</tspan></text><g clip-path="url(#clip3)"><text font-family="Times New Roman,Times New Roman_MSFontService,sans-serif" font-weight="400" font-size="147" transform="matrix(1 0 0 1 147.342 -251)">1</text></g><text font-family="Times New Roman,Times New Roman_MSFontService,sans-serif" font-weight="400" font-size="147" transform="matrix(1 0 0 1 220.676 -251)">-</text><g clip-path="url(#clip4)"><text font-family="Times New Roman,Times New Roman_MSFontService,sans-serif" font-weight="400" font-size="147" transform="matrix(1 0 0 1 269.374 -251)">PCQM</text></g><text font-family="Times New Roman,Times New Roman_MSFontService,sans-serif" font-weight="400" font-size="147" transform="matrix(1 0 0 1 986.872 -251)">D1<tspan font-size="147" x="696.874" y="0">Y</tspan></text><g clip-path="url(#clip5)"><text font-family="Times New Roman,Times New Roman_MSFontService,sans-serif" font-weight="400" font-size="147" transform="matrix(1 0 0 1 2127.96 -251)">1</text></g><text font-family="Times New Roman,Times New Roman_MSFontService,sans-serif" font-weight="400" font-size="147" transform="matrix(1 0 0 1 2201.3 -251)">-</text><g clip-path="url(#clip6)"><text font-family="Times New Roman,Times New Roman_MSFontService,sans-serif" font-weight="400" font-size="147" transform="matrix(1 0 0 1 2250 -251)">PCQM</text></g><text font-family="Times New Roman,Times New Roman_MSFontService,sans-serif" font-weight="400" font-size="147" transform="matrix(1 0 0 1 2967.49 -251)">D1<tspan font-size="147" x="696.874" y="0">Y</tspan></text><g clip-path="url(#clip7)"><text font-family="Times New Roman,Times New Roman_MSFontService,sans-serif" font-weight="400" font-size="147" transform="matrix(1 0 0 1 4108.58 -251)">1</text></g><text font-family="Times New Roman,Times New Roman_MSFontService,sans-serif" font-weight="400" font-size="147" transform="matrix(1 0 0 1 4181.92 -251)">-</text><g clip-path="url(#clip8)"><text font-family="Times New Roman,Times New Roman_MSFontService,sans-serif" font-weight="400" font-size="147" transform="matrix(1 0 0 1 4230.62 -251)">PCQM</text></g><text font-family="Times New Roman,Times New Roman_MSFontService,sans-serif" font-weight="400" font-size="147" transform="matrix(1 0 0 1 4948.12 -251)">D1<tspan font-size="147" x="696.874" y="0">Y</tspan></text><g clip-path="url(#clip9)"><text font-family="Times New Roman,Times New Roman_MSFontService,sans-serif" font-weight="400" font-size="147" transform="matrix(1 0 0 1 6089.21 -251)">1</text></g><text font-family="Times New Roman,Times New Roman_MSFontService,sans-serif" font-weight="400" font-size="147" transform="matrix(1 0 0 1 6162.54 -251)">-</text><g clip-path="url(#clip10)"><text font-family="Times New Roman,Times New Roman_MSFontService,sans-serif" font-weight="400" font-size="147" transform="matrix(1 0 0 1 6211.24 -251)">PCQM</text></g><text font-family="Times New Roman,Times New Roman_MSFontService,sans-serif" font-weight="400" font-size="147" transform="matrix(1 0 0 1 6928.74 -251)">D1<tspan font-size="147" x="696.874" y="0">Y</tspan></text><g clip-path="url(#clip11)"><text font-family="Times New Roman,Times New Roman_MSFontService,sans-serif" font-weight="400" font-size="147" transform="matrix(1 0 0 1 8069.83 -251)">1</text></g><text font-family="Times New Roman,Times New Roman_MSFontService,sans-serif" font-weight="400" font-size="147" transform="matrix(1 0 0 1 8143.16 -251)">-</text><g clip-path="url(#clip12)"><text font-family="Times New Roman,Times New Roman_MSFontService,sans-serif" font-weight="400" font-size="147" transform="matrix(1 0 0 1 8191.86 -251)">PCQM</text></g><text font-family="Times New Roman,Times New Roman_MSFontService,sans-serif" font-weight="700" font-size="147" transform="matrix(1 0 0 1 -4108.4 148)">longdress<tspan font-weight="400" font-size="147" x="1071.01" y="0">-</tspan><tspan font-weight="400" font-size="147" x="1119.7" y="0">66.8</tspan><tspan font-weight="400" font-size="147" x="1731.21" y="0">-</tspan><tspan font-weight="400" font-size="147" x="1779.91" y="0">64.7</tspan><tspan font-weight="400" font-size="147" x="2391.42" y="0">-</tspan><tspan font-weight="400" font-size="147" x="2440.12" y="0">50.1</tspan><tspan font-weight="400" font-size="147" x="3051.63" y="0">-</tspan><tspan font-weight="400" font-size="147" x="3100.32" y="0">86.1</tspan><tspan font-weight="400" font-size="147" x="3711.83" y="0">-</tspan><tspan font-weight="400" font-size="147" x="3760.53" y="0">48.5</tspan><tspan font-weight="400" font-size="147" x="4372.04" y="0">-</tspan><tspan font-weight="400" font-size="147" x="4420.74" y="0">32.4</tspan><tspan font-weight="400" font-size="147" x="5032.25" y="0">-</tspan><tspan font-weight="400" font-size="147" x="5080.95" y="0">83.7</tspan><tspan font-weight="400" font-size="147" x="5692.46" y="0">-</tspan><tspan font-weight="400" font-size="147" x="5741.15" y="0">49.8</tspan><tspan font-weight="400" font-size="147" x="6352.66" y="0">-</tspan><tspan font-weight="400" font-size="147" x="6401.36" y="0">47.5</tspan><tspan font-weight="400" font-size="147" x="7092.51" y="0">---</tspan><tspan font-weight="400" font-size="147" x="7752.71" y="0">---</tspan><tspan font-weight="400" font-size="147" x="8412.92" y="0">---</tspan><tspan font-weight="400" font-size="147" x="9073.13" y="0">---</tspan><tspan font-weight="400" font-size="147" x="9733.33" y="0">---</tspan><tspan font-weight="400" font-size="147" x="10313.9" y="0">-</tspan><tspan font-weight="400" font-size="147" x="10362.6" y="0">63.0</tspan><tspan font-weight="400" font-size="147" x="10974.1" y="0">-</tspan><tspan font-weight="400" font-size="147" x="11022.8" y="0">79.2</tspan><tspan font-weight="400" font-size="147" x="11634.3" y="0">-</tspan><tspan font-weight="400" font-size="147" x="11683" y="0">41.3</tspan><tspan font-weight="400" font-size="147" x="12294.5" y="0">-</tspan><tspan font-weight="400" font-size="147" x="12343.2" y="0">47.3</tspan><tspan font-size="147" x="178.28" y="388">loot</tspan><tspan font-weight="400" font-size="147" x="1071.01" y="388">-</tspan><tspan font-weight="400" font-size="147" x="1119.7" y="388">74.4</tspan><tspan font-weight="400" font-size="147" x="1731.21" y="388">-</tspan><tspan font-weight="400" font-size="147" x="1779.91" y="388">72.2</tspan><tspan font-weight="400" font-size="147" x="2391.42" y="388">-</tspan><tspan font-weight="400" font-size="147" x="2440.12" y="388">64.9</tspan><tspan font-weight="400" font-size="147" x="3051.63" y="388">-</tspan><tspan font-weight="400" font-size="147" x="3100.32" y="388">87.0</tspan><tspan font-weight="400" font-size="147" x="3711.83" y="388">-</tspan><tspan font-weight="400" font-size="147" x="3760.53" y="388">55.9</tspan><tspan font-weight="400" font-size="147" x="4372.04" y="388">-</tspan><tspan font-weight="400" font-size="147" x="4420.74" y="388">53.2</tspan><tspan font-weight="400" font-size="147" x="5032.25" y="388">-</tspan><tspan font-weight="400" font-size="147" x="5080.95" y="388">84.9</tspan><tspan font-weight="400" font-size="147" x="5692.46" y="388">-</tspan><tspan font-weight="400" font-size="147" x="5741.15" y="388">51.0</tspan><tspan font-weight="400" font-size="147" x="6352.66" y="388">-</tspan><tspan font-weight="400" font-size="147" x="6401.36" y="388">55.4</tspan><tspan font-weight="400" font-size="147" x="7092.51" y="388">---</tspan><tspan font-weight="400" font-size="147" x="7752.71" y="388">---</tspan><tspan font-weight="400" font-size="147" x="8412.92" y="388">---</tspan><tspan font-weight="400" font-size="147" x="9073.13" y="388">---</tspan><tspan font-weight="400" font-size="147" x="9733.33" y="388">---</tspan><tspan font-weight="400" font-size="147" x="10313.9" y="388">-</tspan><tspan font-weight="400" font-size="147" x="10362.6" y="388">77.7</tspan><tspan font-weight="400" font-size="147" x="10974.1" y="388">-</tspan><tspan font-weight="400" font-size="147" x="11022.8" y="388">81.5</tspan><tspan font-weight="400" font-size="147" x="11634.3" y="388">-</tspan><tspan font-weight="400" font-size="147" x="11683" y="388">54.5</tspan><tspan font-weight="400" font-size="147" x="12294.5" y="388">-</tspan><tspan font-weight="400" font-size="147" x="12343.2" y="388">58.3</tspan><tspan font-size="147" x="-97.396" y="776">redandblack</tspan><tspan font-weight="400" font-size="147" x="1071.01" y="776">-</tspan><tspan font-weight="400" font-size="147" x="1119.7" y="776">66.1</tspan><tspan font-weight="400" font-size="147" x="1731.21" y="776">-</tspan><tspan font-weight="400" font-size="147" x="1779.91" y="776">64.7</tspan><tspan font-weight="400" font-size="147" x="2391.42" y="776">-</tspan><tspan font-weight="400" font-size="147" x="2440.12" y="776">52.2</tspan><tspan font-weight="400" font-size="147" x="3051.63" y="776">-</tspan><tspan font-weight="400" font-size="147" x="3100.32" y="776">84.9</tspan><tspan font-weight="400" font-size="147" x="3711.83" y="776">-</tspan><tspan font-weight="400" font-size="147" x="3760.53" y="776">55.1</tspan><tspan font-weight="400" font-size="147" x="4372.04" y="776">-</tspan><tspan font-weight="400" font-size="147" x="4420.74" y="776">48.5</tspan><tspan font-weight="400" font-size="147" x="5032.25" y="776">-</tspan><tspan font-weight="400" font-size="147" x="5080.95" y="776">81.8</tspan><tspan font-weight="400" font-size="147" x="5692.46" y="776">-</tspan><tspan font-weight="400" font-size="147" x="5741.15" y="776">53.2</tspan><tspan font-weight="400" font-size="147" x="6352.66" y="776">-</tspan><tspan font-weight="400" font-size="147" x="6401.36" y="776">54.3</tspan><tspan font-weight="400" font-size="147" x="7092.51" y="776">---</tspan><tspan font-weight="400" font-size="147" x="7752.71" y="776">---</tspan><tspan font-weight="400" font-size="147" x="8412.92" y="776">---</tspan><tspan font-weight="400" font-size="147" x="9073.13" y="776">---</tspan><tspan font-weight="400" font-size="147" x="9733.33" y="776">---</tspan><tspan font-weight="400" font-size="147" x="10313.9" y="776">-</tspan><tspan font-weight="400" font-size="147" x="10362.6" y="776">65.9</tspan><tspan font-weight="400" font-size="147" x="10974.1" y="776">-</tspan><tspan font-weight="400" font-size="147" x="11022.8" y="776">74.1</tspan><tspan font-weight="400" font-size="147" x="11634.3" y="776">-</tspan><tspan font-weight="400" font-size="147" x="11683" y="776">54.4</tspan><tspan font-weight="400" font-size="147" x="12294.5" y="776">-</tspan><tspan font-weight="400" font-size="147" x="12343.2" y="776">52.6</tspan><tspan font-size="147" x="84.322" y="1164">soldier</tspan><tspan font-weight="400" font-size="147" x="1071.01" y="1164">-</tspan><tspan font-weight="400" font-size="147" x="1119.7" y="1164">64.0</tspan><tspan font-weight="400" font-size="147" x="1731.21" y="1164">-</tspan><tspan font-weight="400" font-size="147" x="1779.91" y="1164">60.5</tspan><tspan font-weight="400" font-size="147" x="2391.42" y="1164">-</tspan><tspan font-weight="400" font-size="147" x="2440.12" y="1164">53.1</tspan><tspan font-weight="400" font-size="147" x="3051.63" y="1164">-</tspan><tspan font-weight="400" font-size="147" x="3100.32" y="1164">85.3</tspan><tspan font-weight="400" font-size="147" x="3711.83" y="1164">-</tspan><tspan font-weight="400" font-size="147" x="3760.53" y="1164">53.2</tspan><tspan font-weight="400" font-size="147" x="4372.04" y="1164">-</tspan><tspan font-weight="400" font-size="147" x="4420.74" y="1164">46.7</tspan><tspan font-weight="400" font-size="147" x="5032.25" y="1164">-</tspan><tspan font-weight="400" font-size="147" x="5080.95" y="1164">81.8</tspan><tspan font-weight="400" font-size="147" x="5692.46" y="1164">-</tspan><tspan font-weight="400" font-size="147" x="5741.15" y="1164">54.5</tspan><tspan font-weight="400" font-size="147" x="6352.66" y="1164">-</tspan><tspan font-weight="400" font-size="147" x="6401.36" y="1164">61.1</tspan><tspan font-weight="400" font-size="147" x="7012.87" y="1164">-</tspan><tspan font-weight="400" font-size="147" x="7061.57" y="1164">62.9</tspan><tspan font-weight="400" font-size="147" x="7673.08" y="1164">-</tspan><tspan font-weight="400" font-size="147" x="7721.77" y="1164">51.5</tspan><tspan font-weight="400" font-size="147" x="8333.28" y="1164">-</tspan><tspan font-weight="400" font-size="147" x="8381.98" y="1164">42.3</tspan><tspan font-weight="400" font-size="147" x="9073.13" y="1164">---</tspan><tspan font-weight="400" font-size="147" x="9733.33" y="1164">---</tspan><tspan font-weight="400" font-size="147" x="10313.9" y="1164">-</tspan><tspan font-weight="400" font-size="147" x="10362.6" y="1164">74.2</tspan><tspan font-weight="400" font-size="147" x="10974.1" y="1164">-</tspan><tspan font-weight="400" font-size="147" x="11022.8" y="1164">78.2</tspan><tspan font-weight="400" font-size="147" x="11634.3" y="1164">-</tspan><tspan font-weight="400" font-size="147" x="11683" y="1164">52.8</tspan><tspan font-weight="400" font-size="147" x="12294.5" y="1164">-</tspan><tspan font-weight="400" font-size="147" x="12343.2" y="1164">58.6</tspan><tspan font-size="147" x="-33.6987" y="1463">Basketball</tspan><tspan font-size="147" x="96.6511" y="1639">player</tspan><tspan font-weight="400" font-size="147" x="1071.01" y="1551">-</tspan><tspan font-weight="400" font-size="147" x="1119.7" y="1551">85.3</tspan><tspan font-weight="400" font-size="147" x="1731.21" y="1551">-</tspan><tspan font-weight="400" font-size="147" x="1779.91" y="1551">66.2</tspan><tspan font-weight="400" font-size="147" x="2391.42" y="1551">-</tspan><tspan font-weight="400" font-size="147" x="2440.12" y="1551">49.7</tspan><tspan font-weight="400" font-size="147" x="3051.63" y="1551">-</tspan><tspan font-weight="400" font-size="147" x="3100.32" y="1551">60.0</tspan><tspan font-weight="400" font-size="147" x="3736.18" y="1551">38.3</tspan><tspan font-weight="400" font-size="147" x="4396.39" y="1551">68.3</tspan><tspan font-weight="400" font-size="147" x="5032.25" y="1551">-</tspan><tspan font-weight="400" font-size="147" x="5080.95" y="1551">92.9</tspan><tspan font-weight="400" font-size="147" x="5692.46" y="1551">-</tspan><tspan font-weight="400" font-size="147" x="5741.15" y="1551">17.5</tspan><tspan font-weight="400" font-size="147" x="6379.74" y="1551">11.5</tspan><tspan font-weight="400" font-size="147" x="7092.51" y="1551">---</tspan><tspan font-weight="400" font-size="147" x="7752.71" y="1551">---</tspan><tspan font-weight="400" font-size="147" x="8412.92" y="1551">---</tspan><tspan font-weight="400" font-size="147" x="9073.13" y="1551">---</tspan><tspan font-weight="400" font-size="147" x="9733.33" y="1551">---</tspan><tspan font-weight="400" font-size="147" x="10393.5" y="1551">---</tspan><tspan font-weight="400" font-size="147" x="10974.1" y="1551">-</tspan><tspan font-weight="400" font-size="147" x="11022.8" y="1551">85.5</tspan><tspan font-weight="400" font-size="147" x="11634.3" y="1551">-</tspan><tspan font-weight="400" font-size="147" x="11683" y="1551">31.7</tspan><tspan font-weight="400" font-size="147" x="12294.5" y="1551">-</tspan><tspan font-weight="400" font-size="147" x="12343.2" y="1551">40.7</tspan><tspan font-size="147" x="80.3113" y="1939">dancer</tspan><tspan font-weight="400" font-size="147" x="1071.01" y="1939">-</tspan><tspan font-weight="400" font-size="147" x="1119.7" y="1939">83.9</tspan><tspan font-weight="400" font-size="147" x="1731.21" y="1939">-</tspan><tspan font-weight="400" font-size="147" x="1779.91" y="1939">66.5</tspan><tspan font-weight="400" font-size="147" x="2391.42" y="1939">-</tspan><tspan font-weight="400" font-size="147" x="2440.12" y="1939">46.4</tspan><tspan font-weight="400" font-size="147" x="3051.63" y="1939">-</tspan><tspan font-weight="400" font-size="147" x="3100.32" y="1939">55.5</tspan><tspan font-weight="400" font-size="147" x="3736.18" y="1939">47.0</tspan><tspan font-weight="400" font-size="147" x="4396.39" y="1939">75.8</tspan><tspan font-weight="400" font-size="147" x="5032.25" y="1939">-</tspan><tspan font-weight="400" font-size="147" x="5080.95" y="1939">91.8</tspan><tspan font-weight="400" font-size="147" x="5729.12" y="1939">-</tspan><tspan font-weight="400" font-size="147" x="5777.82" y="1939">6.2</tspan><tspan font-weight="400" font-size="147" x="6377.01" y="1939">12.7</tspan><tspan font-weight="400" font-size="147" x="7092.51" y="1939">---</tspan><tspan font-weight="400" font-size="147" x="7752.71" y="1939">---</tspan><tspan font-weight="400" font-size="147" x="8412.92" y="1939">---</tspan><tspan font-weight="400" font-size="147" x="9073.13" y="1939">---</tspan><tspan font-weight="400" font-size="147" x="9733.33" y="1939">---</tspan><tspan font-weight="400" font-size="147" x="10393.5" y="1939">---</tspan><tspan font-weight="400" font-size="147" x="10974.1" y="1939">-</tspan><tspan font-weight="400" font-size="147" x="11022.8" y="1939">84.0</tspan><tspan font-weight="400" font-size="147" x="11634.3" y="1939">-</tspan><tspan font-weight="400" font-size="147" x="11683" y="1939">28.7</tspan><tspan font-weight="400" font-size="147" x="12294.5" y="1939">-</tspan><tspan font-weight="400" font-size="147" x="12343.2" y="1939">40.2</tspan><tspan font-size="147" x="40.7803" y="2339">Average</tspan><tspan font-size="147" x="1071.01" y="2339">-</tspan><tspan font-size="147" x="1119.7" y="2339">73.4</tspan><tspan font-size="147" x="1731.21" y="2339">-</tspan><tspan font-size="147" x="1779.91" y="2339">65.8</tspan><tspan font-size="147" x="2391.42" y="2339">-</tspan>52.7<tspan font-size="147" x="3051.63" y="2339">-</tspan><tspan font-size="147" x="3100.32" y="2339">76.5</tspan><tspan font-size="147" x="3711.83" y="2339">-</tspan><tspan font-size="147" x="3760.53" y="2339">21.2</tspan><tspan font-size="147" x="4408.71" y="2339">-</tspan><tspan font-size="147" x="4457.41" y="2339">6.1</tspan><tspan font-size="147" x="5032.25" y="2339">-</tspan>86.2<tspan font-size="147" x="5692.46" y="2339">-</tspan><tspan font-size="147" x="5741.15" y="2339">38.7</tspan><tspan font-size="147" x="6352.66" y="2339">-</tspan>32.4<tspan font-size="147" x="7012.87" y="2339">-</tspan>62.9<tspan font-weight="400" font-size="147" x="7673.08" y="2339">-</tspan><tspan font-weight="400" font-size="147" x="7721.77" y="2339">51.5</tspan><tspan font-size="147" x="8333.28" y="2339">-</tspan><tspan font-size="147" x="8381.98" y="2339">42.3</tspan><tspan font-weight="400" font-size="147" x="9073.13" y="2339">---</tspan><tspan font-weight="400" font-size="147" x="9733.33" y="2339">---</tspan><tspan font-size="147" x="10313.9" y="2339">-</tspan>70.2<tspan font-size="147" x="10974.1" y="2339">-</tspan>80.4<tspan font-size="147" x="11634.3" y="2339">-</tspan>43.9<tspan font-size="147" x="12294.5" y="2339">-</tspan><tspan font-size="147" x="12343.2" y="2339">49.6</tspan></text></g></svg>